PathFileType	4	(X/Y/Z)	..\data\2014004\dynamic\2014004_C5_01.trc
DataRate	CameraRate	NumFrames	NumMarkers	Units	OrigDataRate	OrigDataStartFrame	OrigNumFrames
100.000000	100.000000	4	52	mm	100.000000	107	143
Frame#	Time	L_IAS			L_IPS			R_IPS			R_IAS			L_FTC			L_FLE			L_FME			L_FAX			L_TTC			L_FAL			L_TAM			L_FCC			L_FM1			L_FM2			L_FM5			R_FTC			R_FLE			R_FME			R_FAX			R_TTC			R_FAL			R_TAM			R_FCC			R_FM1			R_FM2			R_FM5			CV7			TV10			SXS			SJN			L_SIA			L_SRS			L_SAA			L_SAE			L_HLE			L_HME			L_UOA			L_RSP			L_UHE			L_HM2			L_HM5			R_SIA			R_SRS			R_SAA			R_SAE			R_HLE			R_HME			R_UOA			R_RSP			R_UHE			R_HM2			R_HM5			
		X1	Y1	Z1	X2	Y2	Z2	X3	Y3	Z3	X4	Y4	Z4	X5	Y5	Z5	X6	Y6	Z6	X7	Y7	Z7	X8	Y8	Z8	X9	Y9	Z9	X10	Y10	Z10	X11	Y11	Z11	X12	Y12	Z12	X13	Y13	Z13	X14	Y14	Z14	X15	Y15	Z15	X16	Y16	Z16	X17	Y17	Z17	X18	Y18	Z18	X19	Y19	Z19	X20	Y20	Z20	X21	Y21	Z21	X22	Y22	Z22	X23	Y23	Z23	X24	Y24	Z24	X25	Y25	Z25	X26	Y26	Z26	X27	Y27	Z27	X28	Y28	Z28	X29	Y29	Z29	X30	Y30	Z30	X31	Y31	Z31	X32	Y32	Z32	X33	Y33	Z33	X34	Y34	Z34	X35	Y35	Z35	X36	Y36	Z36	X37	Y37	Z37	X38	Y38	Z38	X39	Y39	Z39	X40	Y40	Z40	X41	Y41	Z41	X42	Y42	Z42	X43	Y43	Z43	X44	Y44	Z44	X45	Y45	Z45	X46	Y46	Z46	X47	Y47	Z47	X48	Y48	Z48	X49	Y49	Z49	X50	Y50	Z50	X51	Y51	Z51	X52	Y52	Z52	

108	1.07	1564.561401367188	933.656921386719	-330.4882507324219	1371.598388671875	967.5740966796877	-249.7329559326172	1375.32958984375	970.260925292969	-156.8614196777344	1582.44189453125	953.8742675781252	-99.39662933349612	1469.878540039063	869.2610473632815	-392.3598632812501	1468.014892578125	460.4460449218751	-376.2268066406251	1511.88427734375	444.6138305664064	-255.7100830078126	1420.518920898438	425.3948364257814	-380.9762878417969	1468.84619140625	362.0494995117188	-328.6311035156251	1128.744018554688	218.8274688720704	-325.7252502441407	1171.034057617188	205.5220336914063	-239.1911315917969	1085.770385742188	237.0842590332032	-260.7387390136719	1182.533325195313	69.14633941650392	-248.980453491211	1185.309692382813	78.32091522216798	-301.8890686035157	1150.1220703125	86.04656219482423	-347.0192565917969	1537.931030273438	884.1221313476565	-30.04983139038087	1613.287719726563	477.3670959472657	-77.76789855957033	1631.239990234375	487.7205505371095	-202.4699401855469	1608.670776367188	423.584686279297	-77.58421325683595	1672.550170898438	422.4028625488282	-130.7218017578125	1587.555297851563	63.9201011657715	-122.8159942626953	1591.78564453125	91.5449905395508	-218.1063232421876	1527.851928710938	28.57407188415528	-176.2871551513672	1733.027221679688	22.41585350036621	-215.9497680664063	1730.358764648438	40.74452590942384	-157.5268859863282	1702.447998046875	23.62766838073731	-102.1945724487305	1426.20751953125	1455.402954101563	-204.1415405273438	1349.071044921875	1230.608642578125	-213.8960113525391	1599.37548828125	1185.991577148438	-217.0940704345704	1551.908447265625	1372.467895507813	-205.066879272461	1351.42138671875	1266.453979492188	-334.2721557617188	1377.400634765625	1406.262084960938	-288.5938720703126	1420.842529296875	1414.760498046875	-370.3031005859376	1491.584350585938	1422.732299804688	-393.2768554687501	1461.96044921875	1114.109985351563	-501.8174743652345	1431.156005859375	1098.583740234375	-421.9273071289064	1422.152587890625	1084.34130859375	-475.7718505859376	1657.96044921875	926.8583984375002	-456.4236755371095	1596.413452148438	901.582458496094	-498.6630249023439	1717.06396484375	869.3374633789065	-468.9383850097657	1628.885131835938	816.6429443359377	-492.821746826172	1349.886840820313	1246.964477539063	-93.78870391845705	1379.7177734375	1392.044555664063	-120.0952682495117	1435.751220703125	1402.17138671875	-38.43593215942384	1498.677124023438	1401.64794921875	-19.71160507202149	1380.059692382813	1096.810791015625	59.02491378784181	1358.715454101563	1090.217163085938	-29.56191635131837	1337.06298828125	1087.647583007813	20.15410041809082	1455.271362304688	836.7432861328127	45.22136306762696	1386.312377929688	846.313903808594	83.4856414794922	1459.82666015625	742.3181762695314	60.05235671997072	1356.917602539063	767.3050537109376	74.0021438598633	
109	1.08	1579.473510742188	936.5076904296877	-329.7301635742188	1386.60595703125	970.1845703125002	-249.3888854980469	1390.453735351563	973.387145996094	-156.6962280273438	1597.097778320313	956.2463378906252	-98.61971282958987	1485.875732421875	871.4954223632815	-391.8150329589845	1498.402465820313	463.039031982422	-376.3937683105469	1542.330688476563	447.425018310547	-255.6351623535157	1451.447509765625	427.9501037597657	-381.0264282226563	1500.762939453125	364.5522155761719	-328.9906005859376	1161.675659179688	218.964584350586	-326.4123840332032	1204.3740234375	205.8979034423829	-239.9476318359376	1117.753295898438	235.0186309814454	-261.1732788085938	1220.25	70.59680938720705	-251.7102203369141	1222.606567382813	80.59875488281251	-304.3688659667969	1187.033935546875	87.87179565429689	-349.4598999023438	1551.6943359375	886.3557739257815	-29.52381706237794	1618.538696289063	477.4529113769532	-77.51882171630861	1636.177978515625	487.1212768554689	-202.5130004882813	1612.844604492188	423.5563354492189	-77.35263824462892	1676.846557617188	421.5219726562501	-130.3162536621094	1587.497436523438	64.24526214599611	-122.7590103149414	1591.875244140625	91.98696899414064	-217.9921569824219	1528.095581054688	28.78267669677735	-176.2486572265625	1732.935424804688	23.18504524230957	-215.8805541992188	1730.402587890625	41.28353500366212	-157.4176330566407	1702.49267578125	24.20359230041505	-101.7489852905274	1442.19970703125	1458.100341796875	-203.9442138671876	1364.748168945313	1233.452392578125	-213.4127044677735	1614.89404296875	1188.458862304688	-217.2749633789063	1567.722534179688	1375.026245117188	-205.1438446044922	1366.871215820313	1269.40771484375	-333.5427551269532	1393.278198242188	1409.07763671875	-288.2335510253907	1436.630737304688	1417.594360351563	-369.9693298339844	1507.113647460938	1425.231201171875	-393.2158508300782	1474.858520507813	1116.368774414063	-500.6644897460939	1443.62939453125	1101.908203125	-420.9356079101564	1434.398681640625	1087.842651367188	-474.6072692871095	1664.56201171875	922.6431884765627	-455.920135498047	1602.140014648438	899.7393798828127	-498.3752441406251	1721.59033203125	862.9395751953127	-468.5485229492189	1631.386352539063	813.7243652343752	-492.7962646484376	1366.134643554688	1249.704223632813	-92.97251129150392	1395.496459960938	1394.866088867188	-119.7272872924805	1452.145751953125	1404.76318359375	-38.07506561279298	1515.037353515625	1404.341796875	-19.74480056762696	1400.546142578125	1097.858276367188	59.59371185302736	1378.71728515625	1091.004760742188	-29.0818099975586	1357.320922851563	1087.4658203125	20.79513168334961	1484.016845703125	840.1546020507815	44.13068771362305	1414.73095703125	847.2862548828127	82.44048309326173	1491.774658203125	746.2364501953126	58.98325729370119	1388.115478515625	767.5045166015626	72.85260009765626	
110	1.09	1594.238525390625	939.4854125976565	-329.0260620117188	1401.549926757813	973.0581054687502	-248.9694976806641	1405.601684570313	976.5917968750002	-156.4227752685547	1611.658447265625	958.5393676757815	-97.96258544921878	1501.643676757813	874.1546020507815	-391.3330688476564	1528.368774414063	466.385223388672	-376.2819824218751	1572.317138671875	451.256561279297	-255.2350311279297	1482.09521484375	430.976043701172	-380.8103942871094	1532.777465820313	367.7929077148438	-329.1217956542969	1195.686889648438	217.5113983154297	-327.1395568847657	1238.884155273438	205.0410919189454	-240.6996154785157	1150.678588867188	230.9955596923829	-261.7139282226563	1260.239379882813	71.12216949462892	-254.3965911865235	1262.077880859375	81.93881225585939	-306.8000183105469	1226.054931640625	88.43672943115236	-351.8425903320313	1565.3515625	888.4185180664065	-29.08003807067872	1623.011840820313	477.5371398925782	-77.30751037597658	1640.516845703125	486.5399475097657	-202.5425720214844	1616.310302734375	423.5333251953126	-77.14199829101564	1680.480834960938	420.6926269531251	-129.889892578125	1587.385986328125	64.4925003051758	-122.7322082519532	1591.927978515625	92.38059997558595	-217.8966064453126	1528.262451171875	28.9673023223877	-176.2889099121094	1732.84521484375	23.92045593261719	-215.7231750488282	1730.341064453125	41.72303771972657	-157.27685546875	1702.452880859375	24.63290786743165	-101.3892593383789	1458.038208007813	1460.785400390625	-203.8761901855469	1380.363891601563	1236.243041992188	-212.9478149414063	1630.319458007813	1191.03515625	-217.4664764404297	1583.391479492188	1377.640625	-205.3123779296876	1382.211547851563	1272.300415039063	-332.8161621093751	1409.00341796875	1411.823364257813	-287.9424133300782	1452.241333007813	1420.372802734375	-369.7029113769532	1522.426879882813	1427.718627929688	-393.270965576172	1487.594970703125	1118.610961914063	-499.5223388671876	1455.785522460938	1105.287109375	-419.9997863769532	1446.468017578125	1091.382446289063	-473.4780578613282	1670.572631835938	918.4893188476565	-455.438446044922	1607.361938476563	898.039245605469	-498.0932006835939	1725.383178710938	856.639099121094	-468.1246643066407	1633.2705078125	811.0270996093752	-492.7336425781251	1382.2431640625	1252.486328125	-92.2488479614258	1411.108764648438	1397.688110351563	-119.4974899291992	1468.33154296875	1407.427490234375	-37.88765335083009	1531.159301757813	1407.209838867188	-19.92197227478028	1420.795043945313	1099.202880859375	60.19864654541017	1398.408935546875	1092.081298828125	-28.59175682067872	1377.336791992188	1087.496826171875	21.46087455749512	1512.85693359375	844.2285766601565	42.85754776000977	1443.331665039063	848.786071777344	81.2230682373047	1524.065063476563	751.0251464843751	57.78499984741212	1419.731079101563	768.2515258789065	71.51245880126955	
111	1.1	1608.90478515625	942.5086059570315	-328.3464660644532	1416.461181640625	976.1235961914065	-248.5081024169922	1420.788330078125	979.8178710937502	-156.0591278076172	1626.163208007813	960.7026977539065	-97.41738891601565	1517.274658203125	877.1597290039065	-390.9258117675782	1557.832153320313	470.3320617675782	-375.9090270996094	1601.811645507813	455.9700927734376	-254.5660705566407	1512.40283203125	434.3016052246095	-380.3633422851563	1564.770385742188	371.6585083007813	-329.0231323242188	1230.66162109375	214.4752960205079	-327.8942565917969	1274.433471679688	202.9261169433594	-241.4359130859376	1184.510986328125	225.1040344238282	-262.3424987792969	1302.127685546875	70.71213531494142	-257.0424194335938	1303.338500976563	82.30214691162111	-309.1976013183594	1266.833251953125	87.77261352539064	-354.1530761718751	1578.927612304688	890.2705078125002	-28.71679306030274	1626.85546875	477.6329956054689	-77.14682769775392	1644.421264648438	486.0020141601564	-202.5533905029297	1619.22412109375	423.5392456054689	-76.9679641723633	1683.595703125	419.9217834472657	-129.4743804931641	1587.264892578125	64.67436981201173	-122.7548446655274	1591.990356445313	92.72118377685548	-217.845932006836	1528.3701171875	29.1578769683838	-176.41943359375	1732.797241210938	24.52165031433106	-215.5072784423829	1730.239135742188	42.0001449584961	-157.1128845214844	1702.363891601563	24.88007545471192	-101.1128921508789	1473.747924804688	1463.396240234375	-203.9030914306641	1395.943603515625	1238.91796875	-212.4902648925782	1645.67919921875	1193.656494140625	-217.6517181396485	1598.940673828125	1380.24462890625	-205.5452117919922	1397.466918945313	1275.078247070313	-332.0883178710938	1424.602905273438	1414.443725585938	-287.6970214843751	1467.697265625	1423.044189453125	-369.4775085449219	1537.559814453125	1430.145141601563	-393.4148559570314	1500.177124023438	1120.811401367188	-498.4021301269532	1467.668090820313	1108.672973632813	-419.1138610839845	1458.37109375	1094.920043945313	-472.3917236328126	1676.054565429688	914.424011230469	-454.9756774902345	1612.155029296875	896.4962158203127	-497.823699951172	1728.50439453125	850.471618652344	-467.6510009765626	1634.623291015625	808.578796386719	-492.649139404297	1398.243896484375	1255.233764648438	-91.58828735351564	1426.599731445313	1400.437377929688	-119.3765258789063	1484.341674804688	1410.096435546875	-37.84433746337891	1547.079223632813	1410.170532226563	-20.21076011657715	1440.7763671875	1100.787231445313	60.85858154296876	1417.788818359375	1093.3828125	-28.06486892700196	1397.077880859375	1087.702514648438	22.1749267578125	1541.703247070313	848.9522094726565	41.41293334960938	1472.04736328125	850.8020629882815	79.83310699462892	1556.592895507813	756.6835937500001	56.44320297241212	1451.690673828125	769.5505371093752	69.95452880859376	
